<?xml version="1.0" encoding="UTF-8" standalone="no"?>
<!DOCTYPE svg PUBLIC "-//W3C//DTD SVG 1.1//EN"
 "http://www.w3.org/Graphics/SVG/1.1/DTD/svg11.dtd">
<!-- Generated by graphviz version 2.38.0 (20140413.2041)
 -->
<!-- Title: snakemake_dag Pages: 1 -->
<svg width="723pt" height="1340pt"
 viewBox="0.00 0.00 722.50 1340.00" xmlns="http://www.w3.org/2000/svg" xmlns:xlink="http://www.w3.org/1999/xlink">
<g id="graph0" class="graph" transform="scale(1 1) rotate(0) translate(4 1336)">
<title>snakemake_dag</title>
<polygon fill="white" stroke="none" points="-4,4 -4,-1336 718.5,-1336 718.5,4 -4,4"/>
<!-- 0 -->
<g id="node1" class="node"><title>0</title>
<path fill="none" stroke="#d85656" stroke-width="2" d="M53,-540C53,-540 12,-540 12,-540 6,-540 0,-534 0,-528 0,-528 0,-516 0,-516 0,-510 6,-504 12,-504 12,-504 53,-504 53,-504 59,-504 65,-510 65,-516 65,-516 65,-528 65,-528 65,-534 59,-540 53,-540"/>
<text text-anchor="middle" x="32.5" y="-519.5" font-family="sans" font-size="10.00">pindel2vcf</text>
</g>
<!-- 28 -->
<g id="node29" class="node"><title>28</title>
<path fill="none" stroke="#56d8c9" stroke-width="2" d="M320,-468C320,-468 257,-468 257,-468 251,-468 245,-462 245,-456 245,-456 245,-444 245,-444 245,-438 251,-432 257,-432 257,-432 320,-432 320,-432 326,-432 332,-438 332,-444 332,-444 332,-456 332,-456 332,-462 326,-468 320,-468"/>
<text text-anchor="middle" x="288.5" y="-447.5" font-family="sans" font-size="10.00">vt_decompose</text>
</g>
<!-- 0&#45;&gt;28 -->
<g id="edge39" class="edge"><title>0&#45;&gt;28</title>
<path fill="none" stroke="grey" stroke-width="2" d="M65.1826,-512.063C108.022,-500.35 183.723,-479.65 234.983,-465.634"/>
<polygon fill="grey" stroke="grey" stroke-width="2" points="236.17,-468.938 244.892,-462.924 234.323,-462.186 236.17,-468.938"/>
</g>
<!-- 1 -->
<g id="node2" class="node"><title>1</title>
<path fill="none" stroke="#56d89a" stroke-width="2" d="M557.5,-900C557.5,-900 489.5,-900 489.5,-900 483.5,-900 477.5,-894 477.5,-888 477.5,-888 477.5,-876 477.5,-876 477.5,-870 483.5,-864 489.5,-864 489.5,-864 557.5,-864 557.5,-864 563.5,-864 569.5,-870 569.5,-876 569.5,-876 569.5,-888 569.5,-888 569.5,-894 563.5,-900 557.5,-900"/>
<text text-anchor="middle" x="523.5" y="-879.5" font-family="sans" font-size="10.00">samtools_index</text>
</g>
<!-- 15 -->
<g id="node16" class="node"><title>15</title>
<path fill="none" stroke="#56a2d8" stroke-width="2" d="M587.5,-684C587.5,-684 509.5,-684 509.5,-684 503.5,-684 497.5,-678 497.5,-672 497.5,-672 497.5,-660 497.5,-660 497.5,-654 503.5,-648 509.5,-648 509.5,-648 587.5,-648 587.5,-648 593.5,-648 599.5,-654 599.5,-660 599.5,-660 599.5,-672 599.5,-672 599.5,-678 593.5,-684 587.5,-684"/>
<text text-anchor="middle" x="548.5" y="-663.5" font-family="sans" font-size="10.00">samtools_flagstat</text>
</g>
<!-- 1&#45;&gt;15 -->
<g id="edge18" class="edge"><title>1&#45;&gt;15</title>
<path fill="none" stroke="grey" stroke-width="2" d="M526.72,-863.86C528.588,-853.504 530.883,-840.025 532.5,-828 538.788,-781.229 543.714,-726.504 546.357,-694.41"/>
<polygon fill="grey" stroke="grey" stroke-width="2" points="549.846,-694.688 547.165,-684.438 542.869,-694.123 549.846,-694.688"/>
</g>
<!-- 24 -->
<g id="node25" class="node"><title>24</title>
<path fill="none" stroke="#56d85b" stroke-width="2" d="M492,-828C492,-828 357,-828 357,-828 351,-828 345,-822 345,-816 345,-816 345,-804 345,-804 345,-798 351,-792 357,-792 357,-792 492,-792 492,-792 498,-792 504,-798 504,-804 504,-804 504,-816 504,-816 504,-822 498,-828 492,-828"/>
<text text-anchor="middle" x="424.5" y="-807.5" font-family="sans" font-size="10.00">gatk_realigner_target_creator</text>
</g>
<!-- 1&#45;&gt;24 -->
<g id="edge32" class="edge"><title>1&#45;&gt;24</title>
<path fill="none" stroke="grey" stroke-width="2" d="M499.282,-863.876C486.577,-854.893 470.836,-843.763 457.077,-834.034"/>
<polygon fill="grey" stroke="grey" stroke-width="2" points="458.997,-831.105 448.811,-828.19 454.956,-836.821 458.997,-831.105"/>
</g>
<!-- 2 -->
<g id="node3" class="node"><title>2</title>
<path fill="none" stroke="#d86656" stroke-width="2" d="M107.5,-684C107.5,-684 77.5,-684 77.5,-684 71.5,-684 65.5,-678 65.5,-672 65.5,-672 65.5,-660 65.5,-660 65.5,-654 71.5,-648 77.5,-648 77.5,-648 107.5,-648 107.5,-648 113.5,-648 119.5,-654 119.5,-660 119.5,-660 119.5,-672 119.5,-672 119.5,-678 113.5,-684 107.5,-684"/>
<text text-anchor="middle" x="92.5" y="-663.5" font-family="sans" font-size="10.00">pindel</text>
</g>
<!-- 2&#45;&gt;0 -->
<g id="edge1" class="edge"><title>2&#45;&gt;0</title>
<path fill="none" stroke="grey" stroke-width="2" d="M85.2626,-647.871C74.9466,-623.457 55.9194,-578.426 43.7543,-549.635"/>
<polygon fill="grey" stroke="grey" stroke-width="2" points="46.8793,-548.038 39.7631,-540.189 40.4313,-550.763 46.8793,-548.038"/>
</g>
<!-- 3 -->
<g id="node4" class="node"><title>3</title>
<path fill="none" stroke="#d87556" stroke-width="2" d="M503.5,-180C503.5,-180 473.5,-180 473.5,-180 467.5,-180 461.5,-174 461.5,-168 461.5,-168 461.5,-156 461.5,-156 461.5,-150 467.5,-144 473.5,-144 473.5,-144 503.5,-144 503.5,-144 509.5,-144 515.5,-150 515.5,-156 515.5,-156 515.5,-168 515.5,-168 515.5,-174 509.5,-180 503.5,-180"/>
<text text-anchor="middle" x="488.5" y="-159.5" font-family="sans" font-size="10.00">snpeff</text>
</g>
<!-- 19 -->
<g id="node20" class="node"><title>19</title>
<path fill="none" stroke="#8fd856" stroke-width="2" d="M578.5,-108C578.5,-108 548.5,-108 548.5,-108 542.5,-108 536.5,-102 536.5,-96 536.5,-96 536.5,-84 536.5,-84 536.5,-78 542.5,-72 548.5,-72 548.5,-72 578.5,-72 578.5,-72 584.5,-72 590.5,-78 590.5,-84 590.5,-84 590.5,-96 590.5,-96 590.5,-102 584.5,-108 578.5,-108"/>
<text text-anchor="middle" x="563.5" y="-87.5" font-family="sans" font-size="10.00">report</text>
</g>
<!-- 3&#45;&gt;19 -->
<g id="edge24" class="edge"><title>3&#45;&gt;19</title>
<path fill="none" stroke="grey" stroke-width="2" d="M507.039,-143.697C516.303,-135.05 527.662,-124.449 537.757,-115.027"/>
<polygon fill="grey" stroke="grey" stroke-width="2" points="540.251,-117.486 545.174,-108.104 535.475,-112.369 540.251,-117.486"/>
</g>
<!-- 26 -->
<g id="node27" class="node"><title>26</title>
<path fill="none" stroke="#56d87b" stroke-width="2" d="M504.5,-108C504.5,-108 474.5,-108 474.5,-108 468.5,-108 462.5,-102 462.5,-96 462.5,-96 462.5,-84 462.5,-84 462.5,-78 468.5,-72 474.5,-72 474.5,-72 504.5,-72 504.5,-72 510.5,-72 516.5,-78 516.5,-84 516.5,-84 516.5,-96 516.5,-96 516.5,-102 510.5,-108 504.5,-108"/>
<text text-anchor="middle" x="489.5" y="-87.5" font-family="sans" font-size="10.00">convert</text>
</g>
<!-- 3&#45;&gt;26 -->
<g id="edge35" class="edge"><title>3&#45;&gt;26</title>
<path fill="none" stroke="grey" stroke-width="2" d="M488.747,-143.697C488.857,-135.983 488.99,-126.712 489.113,-118.112"/>
<polygon fill="grey" stroke="grey" stroke-width="2" points="492.612,-118.153 489.256,-108.104 485.613,-118.053 492.612,-118.153"/>
</g>
<!-- 4 -->
<g id="node5" class="node"><title>4</title>
<path fill="none" stroke="#56d8a9" stroke-width="2" d="M333.5,-612C333.5,-612 275.5,-612 275.5,-612 269.5,-612 263.5,-606 263.5,-600 263.5,-600 263.5,-588 263.5,-588 263.5,-582 269.5,-576 275.5,-576 275.5,-576 333.5,-576 333.5,-576 339.5,-576 345.5,-582 345.5,-588 345.5,-588 345.5,-600 345.5,-600 345.5,-606 339.5,-612 333.5,-612"/>
<text text-anchor="middle" x="304.5" y="-591.5" font-family="sans" font-size="10.00">varscan_indel</text>
</g>
<!-- 22 -->
<g id="node23" class="node"><title>22</title>
<path fill="none" stroke="#70d856" stroke-width="2" d="M339,-540C339,-540 292,-540 292,-540 286,-540 280,-534 280,-528 280,-528 280,-516 280,-516 280,-510 286,-504 292,-504 292,-504 339,-504 339,-504 345,-504 351,-510 351,-516 351,-516 351,-528 351,-528 351,-534 345,-540 339,-540"/>
<text text-anchor="middle" x="315.5" y="-519.5" font-family="sans" font-size="10.00">vcfcombine</text>
</g>
<!-- 4&#45;&gt;22 -->
<g id="edge29" class="edge"><title>4&#45;&gt;22</title>
<path fill="none" stroke="grey" stroke-width="2" d="M307.219,-575.697C308.431,-567.983 309.888,-558.712 311.239,-550.112"/>
<polygon fill="grey" stroke="grey" stroke-width="2" points="314.717,-550.526 312.812,-540.104 307.802,-549.44 314.717,-550.526"/>
</g>
<!-- 5 -->
<g id="node6" class="node"><title>5</title>
<path fill="none" stroke="#56d86b" stroke-width="2" d="M608,-1044C608,-1044 547,-1044 547,-1044 541,-1044 535,-1038 535,-1032 535,-1032 535,-1020 535,-1020 535,-1014 541,-1008 547,-1008 547,-1008 608,-1008 608,-1008 614,-1008 620,-1014 620,-1020 620,-1020 620,-1032 620,-1032 620,-1038 614,-1044 608,-1044"/>
<text text-anchor="middle" x="577.5" y="-1023.5" font-family="sans" font-size="10.00">samtools_sort</text>
</g>
<!-- 9 -->
<g id="node10" class="node"><title>9</title>
<path fill="none" stroke="#56d8b9" stroke-width="2" d="M513.5,-972C513.5,-972 443.5,-972 443.5,-972 437.5,-972 431.5,-966 431.5,-960 431.5,-960 431.5,-948 431.5,-948 431.5,-942 437.5,-936 443.5,-936 443.5,-936 513.5,-936 513.5,-936 519.5,-936 525.5,-942 525.5,-948 525.5,-948 525.5,-960 525.5,-960 525.5,-966 519.5,-972 513.5,-972"/>
<text text-anchor="middle" x="478.5" y="-951.5" font-family="sans" font-size="10.00">picard_markdup</text>
</g>
<!-- 5&#45;&gt;9 -->
<g id="edge12" class="edge"><title>5&#45;&gt;9</title>
<path fill="none" stroke="grey" stroke-width="2" d="M553.282,-1007.88C540.577,-998.893 524.836,-987.763 511.077,-978.034"/>
<polygon fill="grey" stroke="grey" stroke-width="2" points="512.997,-975.105 502.811,-972.19 508.956,-980.821 512.997,-975.105"/>
</g>
<!-- 13 -->
<g id="node14" class="node"><title>13</title>
<path fill="none" stroke="#d8d356" stroke-width="2" d="M657,-180C657,-180 584,-180 584,-180 578,-180 572,-174 572,-168 572,-168 572,-156 572,-156 572,-150 578,-144 584,-144 584,-144 657,-144 657,-144 663,-144 669,-150 669,-156 669,-156 669,-168 669,-168 669,-174 663,-180 657,-180"/>
<text text-anchor="middle" x="620.5" y="-159.5" font-family="sans" font-size="10.00">coverage_maker</text>
</g>
<!-- 5&#45;&gt;13 -->
<g id="edge16" class="edge"><title>5&#45;&gt;13</title>
<path fill="none" stroke="grey" stroke-width="2" d="M587.86,-1007.76C602.505,-981.704 627.5,-930.307 627.5,-883 627.5,-883 627.5,-883 627.5,-305 627.5,-264.947 624.688,-218.617 622.628,-190.06"/>
<polygon fill="grey" stroke="grey" stroke-width="2" points="626.115,-189.749 621.883,-180.036 619.134,-190.268 626.115,-189.749"/>
</g>
<!-- 6 -->
<g id="node7" class="node"><title>6</title>
<path fill="none" stroke="#d89556" stroke-width="2" d="M250,-540C250,-540 199,-540 199,-540 193,-540 187,-534 187,-528 187,-528 187,-516 187,-516 187,-510 193,-504 199,-504 199,-504 250,-504 250,-504 256,-504 262,-510 262,-516 262,-516 262,-528 262,-528 262,-534 256,-540 250,-540"/>
<text text-anchor="middle" x="224.5" y="-519.5" font-family="sans" font-size="10.00">bcftools_call</text>
</g>
<!-- 6&#45;&gt;28 -->
<g id="edge37" class="edge"><title>6&#45;&gt;28</title>
<path fill="none" stroke="grey" stroke-width="2" d="M240.32,-503.697C248.07,-495.22 257.539,-484.864 266.024,-475.583"/>
<polygon fill="grey" stroke="grey" stroke-width="2" points="268.697,-477.846 272.862,-468.104 263.531,-473.123 268.697,-477.846"/>
</g>
<!-- 7 -->
<g id="node8" class="node"><title>7</title>
<path fill="none" stroke="#d8a456" stroke-width="2" d="M315.5,-396C315.5,-396 261.5,-396 261.5,-396 255.5,-396 249.5,-390 249.5,-384 249.5,-384 249.5,-372 249.5,-372 249.5,-366 255.5,-360 261.5,-360 261.5,-360 315.5,-360 315.5,-360 321.5,-360 327.5,-366 327.5,-372 327.5,-372 327.5,-384 327.5,-384 327.5,-390 321.5,-396 315.5,-396"/>
<text text-anchor="middle" x="288.5" y="-375.5" font-family="sans" font-size="10.00">vt_normalize</text>
</g>
<!-- 8 -->
<g id="node9" class="node"><title>8</title>
<path fill="none" stroke="#56c1d8" stroke-width="2" d="M303.5,-324C303.5,-324 273.5,-324 273.5,-324 267.5,-324 261.5,-318 261.5,-312 261.5,-312 261.5,-300 261.5,-300 261.5,-294 267.5,-288 273.5,-288 273.5,-288 303.5,-288 303.5,-288 309.5,-288 315.5,-294 315.5,-300 315.5,-300 315.5,-312 315.5,-312 315.5,-318 309.5,-324 303.5,-324"/>
<text text-anchor="middle" x="288.5" y="-303.5" font-family="sans" font-size="10.00">vt_uniq</text>
</g>
<!-- 7&#45;&gt;8 -->
<g id="edge11" class="edge"><title>7&#45;&gt;8</title>
<path fill="none" stroke="grey" stroke-width="2" d="M288.5,-359.697C288.5,-351.983 288.5,-342.712 288.5,-334.112"/>
<polygon fill="grey" stroke="grey" stroke-width="2" points="292,-334.104 288.5,-324.104 285,-334.104 292,-334.104"/>
</g>
<!-- 25 -->
<g id="node26" class="node"><title>25</title>
<path fill="none" stroke="#5673d8" stroke-width="2" d="M334.5,-252C334.5,-252 242.5,-252 242.5,-252 236.5,-252 230.5,-246 230.5,-240 230.5,-240 230.5,-228 230.5,-228 230.5,-222 236.5,-216 242.5,-216 242.5,-216 334.5,-216 334.5,-216 340.5,-216 346.5,-222 346.5,-228 346.5,-228 346.5,-240 346.5,-240 346.5,-246 340.5,-252 334.5,-252"/>
<text text-anchor="middle" x="288.5" y="-231.5" font-family="sans" font-size="10.00">combineVCF2Leaves</text>
</g>
<!-- 8&#45;&gt;25 -->
<g id="edge33" class="edge"><title>8&#45;&gt;25</title>
<path fill="none" stroke="grey" stroke-width="2" d="M288.5,-287.697C288.5,-279.983 288.5,-270.712 288.5,-262.112"/>
<polygon fill="grey" stroke="grey" stroke-width="2" points="292,-262.104 288.5,-252.104 285,-262.104 292,-262.104"/>
</g>
<!-- 9&#45;&gt;1 -->
<g id="edge2" class="edge"><title>9&#45;&gt;1</title>
<path fill="none" stroke="grey" stroke-width="2" d="M489.624,-935.697C494.855,-927.559 501.2,-917.689 506.978,-908.701"/>
<polygon fill="grey" stroke="grey" stroke-width="2" points="510.041,-910.409 512.504,-900.104 504.153,-906.623 510.041,-910.409"/>
</g>
<!-- 9&#45;&gt;24 -->
<g id="edge31" class="edge"><title>9&#45;&gt;24</title>
<path fill="none" stroke="grey" stroke-width="2" d="M471.986,-935.871C462.702,-911.457 445.577,-866.426 434.629,-837.635"/>
<polygon fill="grey" stroke="grey" stroke-width="2" points="437.863,-836.292 431.037,-828.189 431.32,-838.78 437.863,-836.292"/>
</g>
<!-- 29 -->
<g id="node30" class="node"><title>29</title>
<path fill="none" stroke="#afd856" stroke-width="2" d="M469,-756C469,-756 380,-756 380,-756 374,-756 368,-750 368,-744 368,-744 368,-732 368,-732 368,-726 374,-720 380,-720 380,-720 469,-720 469,-720 475,-720 481,-726 481,-732 481,-732 481,-744 481,-744 481,-750 475,-756 469,-756"/>
<text text-anchor="middle" x="424.5" y="-735.5" font-family="sans" font-size="10.00">gatk_indel_realigner</text>
</g>
<!-- 9&#45;&gt;29 -->
<g id="edge41" class="edge"><title>9&#45;&gt;29</title>
<path fill="none" stroke="grey" stroke-width="2" d="M446.296,-935.994C411.54,-915.603 358.131,-877.84 335.5,-828 328.885,-813.432 327.594,-805.91 335.5,-792 342.865,-779.043 354.788,-768.92 367.547,-761.155"/>
<polygon fill="grey" stroke="grey" stroke-width="2" points="369.46,-764.096 376.468,-756.15 366.034,-757.991 369.46,-764.096"/>
</g>
<!-- 10 -->
<g id="node11" class="node"><title>10</title>
<path fill="none" stroke="#d8c356" stroke-width="2" d="M630,-1116C630,-1116 525,-1116 525,-1116 519,-1116 513,-1110 513,-1104 513,-1104 513,-1092 513,-1092 513,-1086 519,-1080 525,-1080 525,-1080 630,-1080 630,-1080 636,-1080 642,-1086 642,-1092 642,-1092 642,-1104 642,-1104 642,-1110 636,-1116 630,-1116"/>
<text text-anchor="middle" x="577.5" y="-1095.5" font-family="sans" font-size="10.00">samtools_sam_to_bam</text>
</g>
<!-- 10&#45;&gt;5 -->
<g id="edge7" class="edge"><title>10&#45;&gt;5</title>
<path fill="none" stroke="grey" stroke-width="2" d="M577.5,-1079.7C577.5,-1071.98 577.5,-1062.71 577.5,-1054.11"/>
<polygon fill="grey" stroke="grey" stroke-width="2" points="581,-1054.1 577.5,-1044.1 574,-1054.1 581,-1054.1"/>
</g>
<!-- 11 -->
<g id="node12" class="node"><title>11</title>
<path fill="none" stroke="#d88556" stroke-width="2" d="M195,-612C195,-612 134,-612 134,-612 128,-612 122,-606 122,-600 122,-600 122,-588 122,-588 122,-582 128,-576 134,-576 134,-576 195,-576 195,-576 201,-576 207,-582 207,-588 207,-588 207,-600 207,-600 207,-606 201,-612 195,-612"/>
<text text-anchor="middle" x="164.5" y="-591.5" font-family="sans" font-size="10.00">bcftools_index</text>
</g>
<!-- 11&#45;&gt;6 -->
<g id="edge9" class="edge"><title>11&#45;&gt;6</title>
<path fill="none" stroke="grey" stroke-width="2" d="M179.331,-575.697C186.525,-567.305 195.297,-557.07 203.19,-547.861"/>
<polygon fill="grey" stroke="grey" stroke-width="2" points="205.989,-549.975 209.839,-540.104 200.674,-545.419 205.989,-549.975"/>
</g>
<!-- 12 -->
<g id="node13" class="node"><title>12</title>
<path fill="none" stroke="#56d0d8" stroke-width="2" d="M172,-468C172,-468 69,-468 69,-468 63,-468 57,-462 57,-456 57,-456 57,-444 57,-444 57,-438 63,-432 69,-432 69,-432 172,-432 172,-432 178,-432 184,-438 184,-444 184,-444 184,-456 184,-456 184,-462 178,-468 172,-468"/>
<text text-anchor="middle" x="120.5" y="-447.5" font-family="sans" font-size="10.00">clintools_checkvariants</text>
</g>
<!-- 12&#45;&gt;25 -->
<g id="edge34" class="edge"><title>12&#45;&gt;25</title>
<path fill="none" stroke="grey" stroke-width="2" d="M133.964,-431.849C163.516,-394.206 234.174,-304.201 268.756,-260.151"/>
<polygon fill="grey" stroke="grey" stroke-width="2" points="271.55,-262.259 274.972,-252.232 266.044,-257.937 271.55,-262.259"/>
</g>
<!-- 13&#45;&gt;19 -->
<g id="edge25" class="edge"><title>13&#45;&gt;19</title>
<path fill="none" stroke="grey" stroke-width="2" d="M606.41,-143.697C599.577,-135.305 591.243,-125.07 583.744,-115.861"/>
<polygon fill="grey" stroke="grey" stroke-width="2" points="586.456,-113.649 577.428,-108.104 581.028,-118.069 586.456,-113.649"/>
</g>
<!-- 30 -->
<g id="node31" class="node"><title>30</title>
<path fill="none" stroke="#56d88a" stroke-width="2" d="M606.5,-36C606.5,-36 576.5,-36 576.5,-36 570.5,-36 564.5,-30 564.5,-24 564.5,-24 564.5,-12 564.5,-12 564.5,-6 570.5,-0 576.5,-0 576.5,-0 606.5,-0 606.5,-0 612.5,-0 618.5,-6 618.5,-12 618.5,-12 618.5,-24 618.5,-24 618.5,-30 612.5,-36 606.5,-36"/>
<text text-anchor="middle" x="591.5" y="-15.5" font-family="sans" font-size="10.00">all</text>
</g>
<!-- 13&#45;&gt;30 -->
<g id="edge45" class="edge"><title>13&#45;&gt;30</title>
<path fill="none" stroke="grey" stroke-width="2" d="M617.002,-143.871C612.038,-119.564 602.9,-74.8187 597.017,-46.0132"/>
<polygon fill="grey" stroke="grey" stroke-width="2" points="600.441,-45.2867 595.01,-36.1893 593.582,-46.6874 600.441,-45.2867"/>
</g>
<!-- 14 -->
<g id="node15" class="node"><title>14</title>
<path fill="none" stroke="#ced856" stroke-width="2" d="M665.5,-1332C665.5,-1332 609.5,-1332 609.5,-1332 603.5,-1332 597.5,-1326 597.5,-1320 597.5,-1320 597.5,-1308 597.5,-1308 597.5,-1302 603.5,-1296 609.5,-1296 609.5,-1296 665.5,-1296 665.5,-1296 671.5,-1296 677.5,-1302 677.5,-1308 677.5,-1308 677.5,-1320 677.5,-1320 677.5,-1326 671.5,-1332 665.5,-1332"/>
<text text-anchor="middle" x="637.5" y="-1311.5" font-family="sans" font-size="10.00">iget_samples</text>
</g>
<!-- 16 -->
<g id="node17" class="node"><title>16</title>
<path fill="none" stroke="#56b1d8" stroke-width="2" d="M665,-1260C665,-1260 610,-1260 610,-1260 604,-1260 598,-1254 598,-1248 598,-1248 598,-1236 598,-1236 598,-1230 604,-1224 610,-1224 610,-1224 665,-1224 665,-1224 671,-1224 677,-1230 677,-1236 677,-1236 677,-1248 677,-1248 677,-1254 671,-1260 665,-1260"/>
<text text-anchor="middle" x="637.5" y="-1239.5" font-family="sans" font-size="10.00">trimmomatic</text>
</g>
<!-- 14&#45;&gt;16 -->
<g id="edge19" class="edge"><title>14&#45;&gt;16</title>
<path fill="none" stroke="grey" stroke-width="2" d="M637.5,-1295.7C637.5,-1287.98 637.5,-1278.71 637.5,-1270.11"/>
<polygon fill="grey" stroke="grey" stroke-width="2" points="641,-1270.1 637.5,-1260.1 634,-1270.1 641,-1270.1"/>
</g>
<!-- 18 -->
<g id="node19" class="node"><title>18</title>
<path fill="none" stroke="#5692d8" stroke-width="2" d="M702.5,-612C702.5,-612 672.5,-612 672.5,-612 666.5,-612 660.5,-606 660.5,-600 660.5,-600 660.5,-588 660.5,-588 660.5,-582 666.5,-576 672.5,-576 672.5,-576 702.5,-576 702.5,-576 708.5,-576 714.5,-582 714.5,-588 714.5,-588 714.5,-600 714.5,-600 714.5,-606 708.5,-612 702.5,-612"/>
<text text-anchor="middle" x="687.5" y="-591.5" font-family="sans" font-size="10.00">multiqc</text>
</g>
<!-- 15&#45;&gt;18 -->
<g id="edge21" class="edge"><title>15&#45;&gt;18</title>
<path fill="none" stroke="grey" stroke-width="2" d="M582.503,-647.876C603.367,-637.369 630.064,-623.924 651.317,-613.222"/>
<polygon fill="grey" stroke="grey" stroke-width="2" points="653.001,-616.293 660.358,-608.669 649.852,-610.041 653.001,-616.293"/>
</g>
<!-- 15&#45;&gt;19 -->
<g id="edge23" class="edge"><title>15&#45;&gt;19</title>
<path fill="none" stroke="grey" stroke-width="2" d="M547.512,-647.958C546.055,-621.308 543.5,-568.143 543.5,-523 543.5,-523 543.5,-523 543.5,-233 543.5,-192.822 551.448,-146.869 557.323,-118.389"/>
<polygon fill="grey" stroke="grey" stroke-width="2" points="560.796,-118.887 559.453,-108.378 553.949,-117.431 560.796,-118.887"/>
</g>
<!-- 17 -->
<g id="node18" class="node"><title>17</title>
<path fill="none" stroke="#d8b456" stroke-width="2" d="M622.5,-1188C622.5,-1188 580.5,-1188 580.5,-1188 574.5,-1188 568.5,-1182 568.5,-1176 568.5,-1176 568.5,-1164 568.5,-1164 568.5,-1158 574.5,-1152 580.5,-1152 580.5,-1152 622.5,-1152 622.5,-1152 628.5,-1152 634.5,-1158 634.5,-1164 634.5,-1164 634.5,-1176 634.5,-1176 634.5,-1182 628.5,-1188 622.5,-1188"/>
<text text-anchor="middle" x="601.5" y="-1167.5" font-family="sans" font-size="10.00">bwa_mem</text>
</g>
<!-- 16&#45;&gt;17 -->
<g id="edge20" class="edge"><title>16&#45;&gt;17</title>
<path fill="none" stroke="grey" stroke-width="2" d="M628.601,-1223.7C624.503,-1215.73 619.551,-1206.1 615.007,-1197.26"/>
<polygon fill="grey" stroke="grey" stroke-width="2" points="617.983,-1195.4 610.297,-1188.1 611.758,-1198.6 617.983,-1195.4"/>
</g>
<!-- 23 -->
<g id="node24" class="node"><title>23</title>
<path fill="none" stroke="#61d856" stroke-width="2" d="M702.5,-1116C702.5,-1116 672.5,-1116 672.5,-1116 666.5,-1116 660.5,-1110 660.5,-1104 660.5,-1104 660.5,-1092 660.5,-1092 660.5,-1086 666.5,-1080 672.5,-1080 672.5,-1080 702.5,-1080 702.5,-1080 708.5,-1080 714.5,-1086 714.5,-1092 714.5,-1092 714.5,-1104 714.5,-1104 714.5,-1110 708.5,-1116 702.5,-1116"/>
<text text-anchor="middle" x="687.5" y="-1095.5" font-family="sans" font-size="10.00">fastqc</text>
</g>
<!-- 16&#45;&gt;23 -->
<g id="edge30" class="edge"><title>16&#45;&gt;23</title>
<path fill="none" stroke="grey" stroke-width="2" d="M643.531,-1223.87C652.128,-1199.46 667.984,-1154.43 678.121,-1125.64"/>
<polygon fill="grey" stroke="grey" stroke-width="2" points="681.427,-1126.78 681.447,-1116.19 674.825,-1124.46 681.427,-1126.78"/>
</g>
<!-- 17&#45;&gt;10 -->
<g id="edge13" class="edge"><title>17&#45;&gt;10</title>
<path fill="none" stroke="grey" stroke-width="2" d="M595.567,-1151.7C592.894,-1143.9 589.674,-1134.51 586.699,-1125.83"/>
<polygon fill="grey" stroke="grey" stroke-width="2" points="589.918,-1124.43 583.364,-1116.1 583.297,-1126.7 589.918,-1124.43"/>
</g>
<!-- 18&#45;&gt;30 -->
<g id="edge44" class="edge"><title>18&#45;&gt;30</title>
<path fill="none" stroke="grey" stroke-width="2" d="M689.476,-575.978C692.39,-549.355 697.5,-496.226 697.5,-451 697.5,-451 697.5,-451 697.5,-161 697.5,-111.297 655.281,-67.772 624.132,-42.4235"/>
<polygon fill="grey" stroke="grey" stroke-width="2" points="626.103,-39.5201 616.085,-36.0719 621.766,-45.0148 626.103,-39.5201"/>
</g>
<!-- 19&#45;&gt;30 -->
<g id="edge43" class="edge"><title>19&#45;&gt;30</title>
<path fill="none" stroke="grey" stroke-width="2" d="M570.421,-71.6966C573.575,-63.8132 577.378,-54.3042 580.881,-45.5464"/>
<polygon fill="grey" stroke="grey" stroke-width="2" points="584.194,-46.689 584.658,-36.1043 577.695,-44.0892 584.194,-46.689"/>
</g>
<!-- 20 -->
<g id="node21" class="node"><title>20</title>
<path fill="none" stroke="#80d856" stroke-width="2" d="M310.5,-684C310.5,-684 230.5,-684 230.5,-684 224.5,-684 218.5,-678 218.5,-672 218.5,-672 218.5,-660 218.5,-660 218.5,-654 224.5,-648 230.5,-648 230.5,-648 310.5,-648 310.5,-648 316.5,-648 322.5,-654 322.5,-660 322.5,-660 322.5,-672 322.5,-672 322.5,-678 316.5,-684 310.5,-684"/>
<text text-anchor="middle" x="270.5" y="-663.5" font-family="sans" font-size="10.00">samtools_mpileup</text>
</g>
<!-- 20&#45;&gt;4 -->
<g id="edge6" class="edge"><title>20&#45;&gt;4</title>
<path fill="none" stroke="grey" stroke-width="2" d="M278.904,-647.697C282.775,-639.728 287.452,-630.1 291.743,-621.264"/>
<polygon fill="grey" stroke="grey" stroke-width="2" points="294.971,-622.629 296.192,-612.104 288.675,-619.57 294.971,-622.629"/>
</g>
<!-- 20&#45;&gt;6 -->
<g id="edge8" class="edge"><title>20&#45;&gt;6</title>
<path fill="none" stroke="grey" stroke-width="2" d="M264.951,-647.871C257.077,-623.564 242.582,-578.819 233.251,-550.013"/>
<polygon fill="grey" stroke="grey" stroke-width="2" points="236.48,-548.624 230.068,-540.189 229.821,-550.781 236.48,-548.624"/>
</g>
<!-- 20&#45;&gt;11 -->
<g id="edge14" class="edge"><title>20&#45;&gt;11</title>
<path fill="none" stroke="grey" stroke-width="2" d="M244.569,-647.876C230.838,-638.808 213.794,-627.552 198.964,-617.759"/>
<polygon fill="grey" stroke="grey" stroke-width="2" points="200.804,-614.78 190.53,-612.19 196.946,-620.621 200.804,-614.78"/>
</g>
<!-- 20&#45;&gt;12 -->
<g id="edge15" class="edge"><title>20&#45;&gt;12</title>
<path fill="none" stroke="grey" stroke-width="2" d="M218.299,-662.622C182.156,-657.922 136.406,-645.235 112.5,-612 84.0166,-572.402 98.0268,-512.094 109.871,-477.631"/>
<polygon fill="grey" stroke="grey" stroke-width="2" points="113.163,-478.82 113.273,-468.225 106.58,-476.439 113.163,-478.82"/>
</g>
<!-- 21 -->
<g id="node22" class="node"><title>21</title>
<path fill="none" stroke="#5682d8" stroke-width="2" d="M429,-612C429,-612 376,-612 376,-612 370,-612 364,-606 364,-600 364,-600 364,-588 364,-588 364,-582 370,-576 376,-576 376,-576 429,-576 429,-576 435,-576 441,-582 441,-588 441,-588 441,-600 441,-600 441,-606 435,-612 429,-612"/>
<text text-anchor="middle" x="402.5" y="-591.5" font-family="sans" font-size="10.00">varscan_snp</text>
</g>
<!-- 20&#45;&gt;21 -->
<g id="edge27" class="edge"><title>20&#45;&gt;21</title>
<path fill="none" stroke="grey" stroke-width="2" d="M302.791,-647.876C320.369,-638.554 342.309,-626.919 361.129,-616.939"/>
<polygon fill="grey" stroke="grey" stroke-width="2" points="362.89,-619.967 370.085,-612.19 359.611,-613.783 362.89,-619.967"/>
</g>
<!-- 21&#45;&gt;22 -->
<g id="edge28" class="edge"><title>21&#45;&gt;22</title>
<path fill="none" stroke="grey" stroke-width="2" d="M380.994,-575.697C370.037,-566.881 356.554,-556.032 344.675,-546.474"/>
<polygon fill="grey" stroke="grey" stroke-width="2" points="346.744,-543.646 336.758,-540.104 342.355,-549.1 346.744,-543.646"/>
</g>
<!-- 22&#45;&gt;28 -->
<g id="edge40" class="edge"><title>22&#45;&gt;28</title>
<path fill="none" stroke="grey" stroke-width="2" d="M308.826,-503.697C305.785,-495.813 302.117,-486.304 298.739,-477.546"/>
<polygon fill="grey" stroke="grey" stroke-width="2" points="301.962,-476.175 295.097,-468.104 295.431,-478.694 301.962,-476.175"/>
</g>
<!-- 23&#45;&gt;18 -->
<g id="edge22" class="edge"><title>23&#45;&gt;18</title>
<path fill="none" stroke="grey" stroke-width="2" d="M687.5,-1079.95C687.5,-1053.29 687.5,-1000.11 687.5,-955 687.5,-955 687.5,-955 687.5,-737 687.5,-696.996 687.5,-650.653 687.5,-622.08"/>
<polygon fill="grey" stroke="grey" stroke-width="2" points="691,-622.049 687.5,-612.049 684,-622.049 691,-622.049"/>
</g>
<!-- 24&#45;&gt;29 -->
<g id="edge42" class="edge"><title>24&#45;&gt;29</title>
<path fill="none" stroke="grey" stroke-width="2" d="M424.5,-791.697C424.5,-783.983 424.5,-774.712 424.5,-766.112"/>
<polygon fill="grey" stroke="grey" stroke-width="2" points="428,-766.104 424.5,-756.104 421,-766.104 428,-766.104"/>
</g>
<!-- 25&#45;&gt;3 -->
<g id="edge5" class="edge"><title>25&#45;&gt;3</title>
<path fill="none" stroke="grey" stroke-width="2" d="M337.17,-215.966C372.587,-203.569 419.791,-187.048 452.002,-175.774"/>
<polygon fill="grey" stroke="grey" stroke-width="2" points="453.205,-179.062 461.487,-172.454 450.892,-172.455 453.205,-179.062"/>
</g>
<!-- 26&#45;&gt;30 -->
<g id="edge46" class="edge"><title>26&#45;&gt;30</title>
<path fill="none" stroke="grey" stroke-width="2" d="M514.452,-71.8761C527.542,-62.8931 543.76,-51.7625 557.936,-42.0341"/>
<polygon fill="grey" stroke="grey" stroke-width="2" points="560.187,-44.734 566.452,-36.1898 556.226,-38.9624 560.187,-44.734"/>
</g>
<!-- 27 -->
<g id="node28" class="node"><title>27</title>
<path fill="none" stroke="#5663d8" stroke-width="2" d="M448.5,-540C448.5,-540 418.5,-540 418.5,-540 412.5,-540 406.5,-534 406.5,-528 406.5,-528 406.5,-516 406.5,-516 406.5,-510 412.5,-504 418.5,-504 418.5,-504 448.5,-504 448.5,-504 454.5,-504 460.5,-510 460.5,-516 460.5,-516 460.5,-528 460.5,-528 460.5,-534 454.5,-540 448.5,-540"/>
<text text-anchor="middle" x="433.5" y="-519.5" font-family="sans" font-size="10.00">vardict</text>
</g>
<!-- 27&#45;&gt;28 -->
<g id="edge38" class="edge"><title>27&#45;&gt;28</title>
<path fill="none" stroke="grey" stroke-width="2" d="M406.227,-507.834C385.658,-497.904 357.004,-484.071 333.115,-472.538"/>
<polygon fill="grey" stroke="grey" stroke-width="2" points="334.411,-469.278 323.884,-468.082 331.368,-475.581 334.411,-469.278"/>
</g>
<!-- 28&#45;&gt;7 -->
<g id="edge10" class="edge"><title>28&#45;&gt;7</title>
<path fill="none" stroke="grey" stroke-width="2" d="M288.5,-431.697C288.5,-423.983 288.5,-414.712 288.5,-406.112"/>
<polygon fill="grey" stroke="grey" stroke-width="2" points="292,-406.104 288.5,-396.104 285,-406.104 292,-406.104"/>
</g>
<!-- 29&#45;&gt;1 -->
<g id="edge3" class="edge"><title>29&#45;&gt;1</title>
<path fill="none" stroke="grey" stroke-width="2" d="M469.588,-756.172C485.666,-764.555 502.303,-776.293 512.5,-792 524.319,-810.205 526.528,-834.977 526.088,-853.764"/>
<polygon fill="grey" stroke="grey" stroke-width="2" points="522.591,-853.612 525.595,-863.772 529.583,-853.956 522.591,-853.612"/>
</g>
<!-- 29&#45;&gt;2 -->
<g id="edge4" class="edge"><title>29&#45;&gt;2</title>
<path fill="none" stroke="grey" stroke-width="2" d="M367.804,-725.046C299.667,-710.68 187.3,-686.988 129.451,-674.791"/>
<polygon fill="grey" stroke="grey" stroke-width="2" points="130.148,-671.361 119.641,-672.723 128.704,-678.21 130.148,-671.361"/>
</g>
<!-- 29&#45;&gt;15 -->
<g id="edge17" class="edge"><title>29&#45;&gt;15</title>
<path fill="none" stroke="grey" stroke-width="2" d="M454.834,-719.876C471.197,-710.639 491.583,-699.131 509.154,-689.212"/>
<polygon fill="grey" stroke="grey" stroke-width="2" points="511.062,-692.154 518.05,-684.19 507.621,-686.058 511.062,-692.154"/>
</g>
<!-- 29&#45;&gt;20 -->
<g id="edge26" class="edge"><title>29&#45;&gt;20</title>
<path fill="none" stroke="grey" stroke-width="2" d="M386.827,-719.876C365.868,-710.349 339.595,-698.407 317.323,-688.283"/>
<polygon fill="grey" stroke="grey" stroke-width="2" points="318.602,-685.02 308.05,-684.068 315.706,-691.393 318.602,-685.02"/>
</g>
<!-- 29&#45;&gt;27 -->
<g id="edge36" class="edge"><title>29&#45;&gt;27</title>
<path fill="none" stroke="grey" stroke-width="2" d="M430.653,-719.621C440.325,-690.115 457.226,-628.328 449.5,-576 448.222,-567.347 445.831,-558.149 443.28,-549.887"/>
<polygon fill="grey" stroke="grey" stroke-width="2" points="446.6,-548.779 440.152,-540.372 439.95,-550.965 446.6,-548.779"/>
</g>
</g>
</svg>
